<svg width="24" height="22" viewBox="0 0 24 22" fill="none" xmlns="http://www.w3.org/2000/svg">
<path d="M19.8054 4.125H3.66762C3.47307 4.125 3.28649 4.19743 3.14893 4.32636C3.01137 4.4553 2.93408 4.63016 2.93408 4.8125C2.93408 4.99484 3.01137 5.1697 3.14893 5.29864C3.28649 5.42757 3.47307 5.5 3.66762 5.5H4.40115V17.875C4.40115 18.2397 4.55572 18.5894 4.83085 18.8473C5.10597 19.1051 5.47913 19.25 5.86822 19.25H17.6048C17.9939 19.25 18.367 19.1051 18.6421 18.8473C18.9173 18.5894 19.0718 18.2397 19.0718 17.875V5.5H19.8054C19.9999 5.5 20.1865 5.42757 20.3241 5.29864C20.4616 5.1697 20.5389 4.99484 20.5389 4.8125C20.5389 4.63016 20.4616 4.4553 20.3241 4.32636C20.1865 4.19743 19.9999 4.125 19.8054 4.125ZM17.6048 17.875H5.86822V5.5H17.6048V17.875ZM7.33529 2.0625C7.33529 1.88016 7.41257 1.7053 7.55014 1.57636C7.6877 1.44743 7.87428 1.375 8.06882 1.375H15.4042C15.5987 1.375 15.7853 1.44743 15.9229 1.57636C16.0604 1.7053 16.1377 1.88016 16.1377 2.0625C16.1377 2.24484 16.0604 2.4197 15.9229 2.54864C15.7853 2.67757 15.5987 2.75 15.4042 2.75H8.06882C7.87428 2.75 7.6877 2.67757 7.55014 2.54864C7.41257 2.4197 7.33529 2.24484 7.33529 2.0625Z" fill="#FF0004"/>
</svg>
