<svg width="20" height="17" viewBox="0 0 20 17" fill="none" xmlns="http://www.w3.org/2000/svg">
<path d="M0.686035 16.3931H15.7759" stroke="#FCC758" stroke-width="2.31353" stroke-linecap="round" stroke-linejoin="round"/>
<path d="M8.91668 12.1429L4.80127 12.7986L5.48717 9.10714L14.7194 0.959281C14.8469 0.845468 14.9987 0.755132 15.1658 0.693485C15.333 0.631837 15.5123 0.600098 15.6934 0.600098C15.8745 0.600098 16.0538 0.631837 16.221 0.693485C16.3881 0.755132 16.5399 0.845468 16.6674 0.959281L18.1215 2.24642C18.2501 2.35931 18.3521 2.49361 18.4218 2.64158C18.4914 2.78955 18.5273 2.94827 18.5273 3.10857C18.5273 3.26887 18.4914 3.42758 18.4218 3.57555C18.3521 3.72352 18.2501 3.85783 18.1215 3.97071L8.91668 12.1429Z" stroke="#FCC758" stroke-width="2.31353" stroke-linecap="round" stroke-linejoin="round"/>
</svg>
