<svg width="48" height="48" viewBox="0 0 48 48" fill="none" xmlns="http://www.w3.org/2000/svg">
<path d="M32 0H16C7.16344 0 0 7.16344 0 16V32C0 40.8366 7.16344 48 16 48H32C40.8366 48 48 40.8366 48 32V16C48 7.16344 40.8366 0 32 0Z" fill="#A80000" fill-opacity="0.15"/>
<path d="M31 22H17C15.6739 22 14.4021 22.5268 13.4645 23.4645C12.5268 24.4021 12 25.6739 12 27V33C12 34.3261 12.5268 35.5979 13.4645 36.5355C14.4021 37.4732 15.6739 38 17 38H31C32.3261 38 33.5979 37.4732 34.5355 36.5355C35.4732 35.5979 36 34.3261 36 33V27C36 25.6739 35.4732 24.4021 34.5355 23.4645C33.5979 22.5268 32.3261 22 31 22ZM24 34C23.2089 34 22.4355 33.7654 21.7777 33.3259C21.1199 32.8864 20.6072 32.2616 20.3045 31.5307C20.0017 30.7998 19.9225 29.9956 20.0769 29.2196C20.2312 28.4437 20.6122 27.731 21.1716 27.1716C21.731 26.6122 22.4437 26.2312 23.2196 26.0769C23.9956 25.9225 24.7998 26.0017 25.5307 26.3045C26.2616 26.6072 26.8864 27.1199 27.3259 27.7777C27.7654 28.4355 28 29.2089 28 30C28 31.0609 27.5786 32.0783 26.8284 32.8284C26.0783 33.5786 25.0609 34 24 34Z" fill="#A80000"/>
<path d="M24 32C25.1046 32 26 31.1046 26 30C26 28.8954 25.1046 28 24 28C22.8954 28 22 28.8954 22 30C22 31.1046 22.8954 32 24 32Z" fill="#A80000"/>
<path d="M24.9699 9.2958C24.8769 9.20207 24.7663 9.12768 24.6444 9.07691C24.5226 9.02614 24.3919 9 24.2599 9C24.1278 9 23.9971 9.02614 23.8753 9.07691C23.7534 9.12768 23.6428 9.20207 23.5499 9.2958L19.3099 13.5458C19.1162 13.7328 19.0048 13.989 19.0002 14.2581C18.9955 14.5272 19.0979 14.7872 19.2849 14.9808C19.4718 15.1744 19.7281 15.2858 19.9972 15.2905C20.2663 15.2952 20.5262 15.1928 20.7199 15.0058L23.2599 12.4158V18.0058C23.2599 18.271 23.3652 18.5254 23.5527 18.7129C23.7403 18.9004 23.9946 19.0058 24.2599 19.0058C24.5251 19.0058 24.7794 18.9004 24.967 18.7129C25.1545 18.5254 25.2599 18.271 25.2599 18.0058V12.4158L27.7999 15.0058C27.9861 15.1905 28.2375 15.2947 28.4999 15.2958C28.6398 15.3034 28.7797 15.2815 28.9107 15.2316C29.0416 15.1816 29.1606 15.1047 29.2599 15.0058C29.4461 14.8184 29.5506 14.565 29.5506 14.3008C29.5506 14.0366 29.4461 13.7832 29.2599 13.5958L24.9699 9.2958Z" fill="#A80000"/>
</svg>
