<svg width="48" height="48" viewBox="0 0 48 48" fill="none" xmlns="http://www.w3.org/2000/svg">
<path d="M32 0H16C7.16344 0 0 7.16344 0 16V32C0 40.8366 7.16344 48 16 48H32C40.8366 48 48 40.8366 48 32V16C48 7.16344 40.8366 0 32 0Z" fill="#3895FF" fill-opacity="0.15"/>
<path d="M23.3261 38H20.8128C19.5655 38 18.5508 36.9907 18.5508 35.75V20.25C18.5508 19.0093 19.5655 18 20.8128 18H23.3261C24.5734 18 25.5881 19.0093 25.5881 20.25V35.75C25.5881 36.9907 24.5734 38 23.3261 38Z" fill="#3895FF"/>
<path d="M13.7754 38H11.262C10.0147 38 9 36.9907 9 35.75V25.25C9 24.0093 10.0147 23 11.262 23H13.7754C15.0227 23 16.0374 24.0093 16.0374 25.25V35.75C16.0374 36.9907 15.0226 38 13.7754 38Z" fill="#3895FF"/>
<path d="M32.8769 38H30.3636C29.1163 38 28.1016 36.9907 28.1016 35.75V15H26.7205C26.0748 15 25.506 14.6375 25.2362 14.054C24.9664 13.4705 25.0598 12.8051 25.4801 12.3174C25.4848 12.3119 25.4897 12.3063 25.4946 12.3009L30.8715 6.33263C31.0622 6.12094 31.3345 6 31.6202 6C31.906 6 32.1782 6.12094 32.369 6.33263L37.7458 12.3009C37.7508 12.3063 37.7556 12.3119 37.7604 12.3174C38.1806 12.8051 38.2741 13.4705 38.0043 14.054C37.7344 14.6375 37.1657 15 36.52 15H35.1389V35.75C35.1389 36.9907 34.1242 38 32.8769 38Z" fill="#3895FF"/>
</svg>
