<svg width="30" height="27" viewBox="0 0 30 27" fill="none" xmlns="http://www.w3.org/2000/svg">
<path d="M29.6327 25.0824L22.4204 18.5914C24.2082 16.6298 25.2857 14.1171 25.2857 11.3786C25.2857 5.09694 19.6224 0 12.6429 0C5.65714 0 0 5.09694 0 11.3786C0 17.6602 5.65714 22.7571 12.6429 22.7571C15.6857 22.7571 18.4714 21.7929 20.651 20.1839L27.8633 26.6694C28.3531 27.1102 29.1429 27.1102 29.6327 26.6694C30.1224 26.2341 30.1224 25.5178 29.6327 25.0824ZM12.6429 20.4924C7.05306 20.4924 2.5102 16.4039 2.5102 11.3786C2.5102 6.35327 7.05306 2.25918 12.6429 2.25918C18.2265 2.25918 22.7755 6.35327 22.7755 11.3786C22.7755 16.4039 18.2265 20.4924 12.6429 20.4924Z" fill="white"/>
</svg>
